<svg width="256" height="256" viewBox="0 0 256 256" fill="none" xmlns="http://www.w3.org/2000/svg">
  <rect width="256" height="256" rx="64" fill="#202736"/>
  <circle cx="128" cy="128" r="88" fill="rgba(255,255,255,0.04)"/>
  <path d="M192 96h-12.48c2.64-4.4 4.24-9.44 4.4-14.88.32-8.24-3.44-15.92-9.28-21.68-12.32-12.32-21.92-12.48-30.56-10.32A36.92 36.92 0 0 0 120 40.16c-15.12 0-28.08 8.88-34.16 21.68C73.2 66.08 64 77.92 64 92c0 14.88 10.24 27.28 24 30.88V176c0 8.8 7.2 16 16 16h56c8.8 0 16-7.2 16-16h16c8.8 0 16-7.2 16-16v-48c0-8.8-7.2-16-16-16ZM96 108c-8.8 0-16-7.2-16-16 0-6.8 4.4-12.8 10.96-15.04l6.4-2.16 2.88-6.08c3.52-7.84 11.04-12.64 19.52-12.64 6.32 0 11.12 2.8 13.92 5.2l6.24 5.2s5.12-2.4 11.76-2.4c8.8 0 16 7.2 16 16h-24.08C117.36 80.08 113.2 108 96 108Zm96 56h-16v-48h16v48Z" fill="#B6C0CC"/>
</svg>
