<svg preserveAspectRatio="none" width="100%" height="100%" overflow="visible" style="display: block;" viewBox="0 0 239.654 408.01" fill="none" xmlns="http://www.w3.org/2000/svg">
<g id="sunny">
<path id="Vector" d="M97.4753 4C109.475 4 121.475 4 133.475 4C135.125 4.19 136.775 4.53 138.425 4.55C161.125 4.78 183.635 6.86 205.865 11.6C213.415 13.21 220.605 15.79 227.275 19.68C233.515 23.31 236.915 29.27 235.185 34.37C233.865 38.27 233.725 42.19 233.525 46.17C233.015 56.48 232.355 66.79 232.045 77.1C231.805 84.92 231.175 92.86 232.215 100.55C233.885 112.89 233.115 124.74 229.045 136.46C223.535 152.29 220.825 168.59 219.805 185.33C218.085 213.4 215.785 241.43 213.675 269.47C211.785 294.52 209.835 319.56 207.845 344.61C207.225 352.4 206.895 360.26 205.605 367.94C202.735 385.01 191.075 393.79 175.405 398.29C163.675 401.66 151.585 402.88 139.485 404.01H97.4853C95.6753 403.78 93.8653 403.54 92.0553 403.31C80.8253 401.9 69.5453 400.7 58.8253 396.74C43.9753 391.25 34.8253 381.22 32.8353 365.03C32.2453 360.21 32.2653 355.41 31.8353 350.6C30.4853 335.36 29.2853 320.11 28.1053 304.85C26.9853 290.42 26.0053 275.98 24.8653 261.55C23.3053 241.65 21.5953 221.75 20.0653 201.85C19.2153 190.73 18.8553 179.57 17.7953 168.47C16.7153 157.14 13.1053 146.34 9.4753 135.62C5.7453 124.62 5.3753 113.4 6.5553 102.06C8.3053 85.22 5.6453 68.49 5.6953 51.69C5.7053 47.04 5.5453 42.3 4.6453 37.77C2.7253 28.08 4.8853 23.12 13.8953 18.5C29.9853 10.25 47.6353 8.62 65.1553 6.66C75.8953 5.45 86.6953 4.86 97.4753 4Z" fill="var(--fill-0, #FBAF21)" stroke="var(--stroke-0, #FDF6DD)" stroke-width="8"/>
<g id="Vector_2">
<path d="M170.795 91.5601C153.695 93.2701 136.565 93.7701 116.225 93.6701L116.235 93.6801C90.6853 94.2901 62.2053 91.7901 33.9453 86.6201C31.8253 86.2301 29.7053 85.7601 27.6053 85.2501C25.2053 84.6701 23.9953 83.1801 23.9253 80.6201C23.6553 71.6301 23.3353 62.6401 22.9553 53.6601C22.8053 50.3701 24.2353 49.5201 27.2353 50.3201C62.5853 59.8101 98.7853 59.8201 134.915 59.2601C160.525 58.8601 186.195 57.6001 211.095 50.4301C214.715 49.3801 216.375 50.2601 216.145 54.3601C215.645 63.1701 215.355 71.9901 215.095 80.8101C214.985 84.4101 212.475 85.1101 209.785 85.6301C196.865 88.1301 183.905 90.2501 170.795 91.5601Z" fill="var(--fill-0, #FDF6DD)"/>
<path d="M211.705 32.5801C188.425 17.9901 46.1553 18.1601 27.2053 32.6701C88.6753 45.7601 150.165 45.6401 211.705 32.5801Z" fill="var(--fill-0, #FDF6DD)"/>
</g>
</g>
</svg>
