<svg width="99" height="194" viewBox="0 0 99 194" fill="none" xmlns="http://www.w3.org/2000/svg">
<g id="Layer_1" clip-path="url(#clip0_0_6)">
<path id="VectorHalo" d="M74.9782 194L24.2261 193.833C19.0586 193.818 15.5026 187.731 17.1671 183.094C21.0862 172.15 23.3106 161.29 23.6511 149.617C24.2261 130.264 19.7471 111.549 10.9252 94.4348C7.70212 88.1887 5.6215 81.7985 3.85864 75.006C-1.98225 52.4655 -1.17269 26.6691 6.12841 4.55363C6.90014 2.23887 8.72352 0 11.4246 0H87.5755C90.2841 0 92.1075 2.23887 92.8716 4.55363C100.483 27.633 100.929 53.6266 94.6193 77.0854C92.6976 84.2422 90.0344 90.6249 86.7432 97.2505C78.6477 113.53 74.8572 131.38 75.3414 149.617C75.6516 161.183 77.9062 172.014 81.7346 182.76C83.5277 187.799 80.3046 192.975 74.9707 194.008L74.9782 194ZM94.8388 41.6506C94.5664 28.9839 92.69 17.1141 88.8617 5.63133C88.5363 4.62194 87.9538 4.11345 86.8113 4.08309H12.1963C11.0463 4.10586 10.4788 4.62953 10.1459 5.63133C6.25703 17.2431 4.41852 29.295 4.17641 41.6582H94.8388V41.6506Z" fill="var(--fill-0, #FBAF21)" stroke="white" stroke-width="10" stroke-linejoin="round"/>
<path id="Vector" d="M74.9782 194L24.2261 193.833C19.0586 193.818 15.5026 187.731 17.1671 183.094C21.0862 172.15 23.3106 161.29 23.6511 149.617C24.2261 130.264 19.7471 111.549 10.9252 94.4348C7.70212 88.1887 5.6215 81.7985 3.85864 75.006C-1.98225 52.4655 -1.17269 26.6691 6.12841 4.55363C6.90014 2.23887 8.72352 0 11.4246 0H87.5755C90.2841 0 92.1075 2.23887 92.8716 4.55363C100.483 27.633 100.929 53.6266 94.6193 77.0854C92.6976 84.2422 90.0344 90.6249 86.7432 97.2505C78.6477 113.53 74.8572 131.38 75.3414 149.617C75.6516 161.183 77.9062 172.014 81.7346 182.76C83.5277 187.799 80.3046 192.975 74.9707 194.008L74.9782 194ZM94.8388 41.6506C94.5664 28.9839 92.69 17.1141 88.8617 5.63133C88.5363 4.62194 87.9538 4.11345 86.8113 4.08309H12.1963C11.0463 4.10586 10.4788 4.62953 10.1459 5.63133C6.25703 17.2431 4.41852 29.295 4.17641 41.6582H94.8388V41.6506Z" fill="var(--fill-0, #FBAF21)"/>
</g>
<defs>
<clipPath id="clip0_0_6">
<rect width="99" height="194" fill="white"/>
</clipPath>
</defs>
</svg>
