<?xml version="1.0" encoding="UTF-8"?>
<svg viewBox="0 0 16 16" xmlns="http://www.w3.org/2000/svg">
  <path fill="#000000" fill-rule="evenodd" d="M7.2 0H8.8V2.5H7.2V0ZM7.2 13.5H8.8V16H7.2V13.5ZM0 7.2H2.5V8.8H0V7.2ZM13.5 7.2H16V8.8H13.5V7.2ZM2.16 3.29L3.29 2.16L5.06 3.93L3.93 5.06L2.16 3.29ZM10.94 12.07L12.07 10.94L13.84 12.71L12.71 13.84L10.94 12.07ZM12.71 2.16L13.84 3.29L12.07 5.06L10.94 3.93L12.71 2.16ZM3.93 10.94L5.06 12.07L3.29 13.84L2.16 12.71L3.93 10.94ZM8 4.2C5.9 4.2 4.2 5.9 4.2 8C4.2 10.1 5.9 11.8 8 11.8C10.1 11.8 11.8 10.1 11.8 8C11.8 5.9 10.1 4.2 8 4.2Z"/>
</svg>
