<?xml version="1.0" encoding="UTF-8"?>
<svg width="1200" height="630" viewBox="0 0 1200 630" fill="none" xmlns="http://www.w3.org/2000/svg">
  <rect width="1200" height="630" rx="40" fill="#202736"/>
  <circle cx="122" cy="111" r="70" fill="#F4C95D" fill-opacity="0.18"/>
  <path d="M105 72H162V103C162 127.853 141.853 148 117 148H105V72Z" fill="#F4C95D"/>
  <path d="M162 82H180C191.046 82 200 90.9543 200 102V111C200 122.046 191.046 131 180 131H162V82Z" fill="#F4C95D" fill-opacity="0.8"/>
  <path d="M109 164H171" stroke="#F4C95D" stroke-width="14" stroke-linecap="round"/>
  <text x="182" y="125" fill="#FFFFFF" font-family="Inter, Arial, sans-serif" font-size="44" font-weight="700">Sunny Pubs in the UK</text>
  <text x="182" y="182" fill="#CBD5E1" font-family="Inter, Arial, sans-serif" font-size="28">Find the best sunny pub spots and follow the sun from one stop to the next.</text>
  <rect x="80" y="260" width="1040" height="260" rx="28" fill="#111827" stroke="#334155" stroke-width="4"/>
  <text x="140" y="338" fill="#F4C95D" font-family="Inter, Arial, sans-serif" font-size="24" font-weight="700">FOLLOW THE SUN</text>
  <text x="140" y="390" fill="#FFFFFF" font-family="Inter, Arial, sans-serif" font-size="36" font-weight="700">Plan your next pint in the sunshine</text>
  <text x="140" y="438" fill="#CBD5E1" font-family="Inter, Arial, sans-serif" font-size="26">Search pubs, preview sunny hours, and compare outdoor comfort across the next 48 hours.</text>
  <rect x="742" y="324" width="280" height="96" rx="24" fill="#1F2937" stroke="#F4C95D" stroke-width="3"/>
  <text x="780" y="382" fill="#F4C95D" font-family="Inter, Arial, sans-serif" font-size="40" font-weight="700">😎 sunny now</text>
</svg>
